<svg width="22" height="20" viewBox="0 0 22 20" fill="none" xmlns="http://www.w3.org/2000/svg">
<path d="M4.44388 13.9722L4.4414 14.1317L4.53177 14.2632C5.95714 16.3369 8.3947 17.7 11.1461 17.7C13.8974 17.7 16.335 16.3369 17.7604 14.2632L17.8507 14.1317L17.8483 13.9722C17.8376 13.2885 17.4741 12.7257 16.9909 12.2885C16.5089 11.8524 15.8687 11.5028 15.1943 11.2302C13.847 10.6856 12.2407 10.4 11.1461 10.4C10.0464 10.4 8.44005 10.6855 7.09376 11.2303C6.41992 11.5029 5.78061 11.8526 5.29945 12.2888C4.81693 12.7262 4.45453 13.2889 4.44388 13.9722ZM1.30899 10C1.30899 4.77164 5.70039 0.5 11.1461 0.5C16.5917 0.5 20.9831 4.77164 20.9831 10C20.9831 15.2284 16.5917 19.5 11.1461 19.5C5.70039 19.5 1.30899 15.2284 1.30899 10ZM14.7472 6C14.7472 4.04836 13.1224 2.5 11.1461 2.5C9.16973 2.5 7.54495 4.04836 7.54495 6C7.54495 7.95164 9.16973 9.5 11.1461 9.5C13.1224 9.5 14.7472 7.95164 14.7472 6Z" fill="#F7FCF7" stroke="#868A85"/>
</svg>
